<svg xmlns="http://www.w3.org/2000/svg" width="200" height="200" viewBox="0 0 200 200"><circle cx="100" cy="102" r="77" fill="#f8edc4"/><circle cx="155" cy="47" r="18" fill="white" opacity=".38"/><path d="M25 200c4-45 29-64 75-64s71 19 75 64" fill="#9c4640"/><path d="M63 87c-3-49 78-56 77 0l7 70H51z" fill="#171c29"/><path d="M87 120h27v35c-4 13-26 13-30 0z" fill="#704533"/><path d="M79 132c15 13 30 13 37 0v10c-17 7-28 5-37-5" fill="#000" opacity=".09"/><ellipse cx="68" cy="104" rx="7" ry="10" fill="#704533"/><ellipse cx="132" cy="104" rx="7" ry="10" fill="#704533"/><path d="M68 86c0-37 64-37 64 0v22c0 42-64 45-64 0z" fill="#704533"/><path d="M65 87c-2-27 16-40 38-39 24-5 38 17 31 42l-9-4c-8-16-9-15-17-24-10 18-24 23-43 25" fill="#171c29"/><path d="M67 69c-10 19-9 59-6 81M129 71c9 21 12 52 13 79" stroke="#171c29" stroke-width="13" stroke-linecap="round"/><path d="M78 96h9m27 0h9" stroke="#171c29" stroke-width="3" stroke-linecap="round"/><ellipse cx="83" cy="102" rx="2" ry="2.5" fill="#211a17"/><ellipse cx="118" cy="102" rx="2" ry="2.5" fill="#211a17"/><path d="m101 104-3 10h6" stroke="#000" opacity=".2" stroke-width="2" fill="none" stroke-linecap="round"/><path d="M88 121q12 10 24 0" stroke="#fff4e7" stroke-width="3" fill="none" stroke-linecap="round"/><path d="M69 150l15-8q16 24 32 0l17 8-13 22-19-8-17 8z" fill="#fff" opacity=".22"/><path d="M41 198v-18m116 18v-18" stroke="#000" opacity=".13" stroke-width="3"/></svg>